<svg width="16" height="16" viewBox="0 0 16 16" fill="none" xmlns="http://www.w3.org/2000/svg">
<path d="M15.6248 0.371909C15.1289 -0.12397 14.3256 -0.12397 13.8314 0.371909L7.99671 6.2066L2.16201 0.371909C1.66613 -0.12397 0.862842 -0.12397 0.368614 0.371909C-0.127266 0.867789 -0.127266 1.67108 0.368614 2.16531L6.20331 8L0.368614 13.8347C-0.127266 14.3306 -0.127266 15.1339 0.368614 15.6281C0.618199 15.8777 0.940531 16 1.26614 16C1.59176 16 1.9174 15.8777 2.16366 15.6281L7.99836 9.7934L13.8331 15.6281C14.0826 15.8777 14.405 16 14.7306 16C15.0562 16 15.3818 15.8777 15.6281 15.6281C16.124 15.1322 16.124 14.3289 15.6281 13.8347L9.79341 8L15.6281 2.16531C16.124 1.66943 16.124 0.866138 15.6281 0.371909H15.6248Z" fill="#D9D9D9"/>
</svg>
