<svg width="20" height="20" viewBox="0 0 20 20" fill="none" xmlns="http://www.w3.org/2000/svg">
<path d="M11.7083 5.4092C11.8435 5.53214 11.9981 5.58483 12.1719 5.58483C12.3458 5.58483 12.5003 5.53214 12.6356 5.4092C12.8867 5.18089 12.8867 4.79452 12.6356 4.56621L10.4719 2.59923C10.2208 2.37092 9.79576 2.37092 9.54462 2.59923L7.38096 4.58377C7.12982 4.81208 7.12982 5.19845 7.38096 5.42676C7.6321 5.65508 8.0571 5.65508 8.30824 5.42676L9.37076 4.46084V15.5567L8.30824 14.5908C8.0571 14.3625 7.6321 14.3625 7.38096 14.5908C7.12982 14.8191 7.12982 15.2055 7.38096 15.4338L9.54462 17.4008C9.67985 17.5237 9.8344 17.5764 10.0083 17.5764C10.1821 17.5764 10.3367 17.5237 10.4719 17.4008L12.6356 15.4338C12.8867 15.2055 12.8867 14.8191 12.6356 14.5908C12.3844 14.3625 11.9594 14.3625 11.7083 14.5908L10.6458 15.5567V4.46084L11.7083 5.4092Z" fill="#00393C"/>
<path d="M15.9776 0H4.03888C2.28091 0 0.832031 1.31718 0.832031 2.91535V17.0847C0.832031 18.7004 2.28091 20 4.03888 20H15.9583C17.7356 20 19.1652 18.6828 19.1652 17.0847V2.91535C19.1845 1.31718 17.7356 0 15.9776 0ZM17.8708 17.1022C17.8708 18.0506 17.0208 18.8409 15.9583 18.8409H4.03888C2.99569 18.8409 2.12636 18.0681 2.12636 17.1022V2.91535C2.12636 1.96698 2.97637 1.17668 4.03888 1.17668H15.9583C17.0015 1.17668 17.8708 1.94942 17.8708 2.91535V17.1022Z" fill="#00393C"/>
</svg>
