<svg width="12" height="12" viewBox="0 0 12 12" fill="none" xmlns="http://www.w3.org/2000/svg">
<path fill-rule="evenodd" clip-rule="evenodd" d="M6 0C2.68629 2.89694e-07 -2.89694e-07 2.68629 0 6C2.89694e-07 9.31374 2.68629 12 6 12C9.31368 12 12 9.31368 12 6C12 2.68629 9.31368 -2.89694e-07 6 0ZM6 1.2C3.34903 1.2 1.2 3.34903 1.2 6C1.2 8.65098 3.34903 10.8 6 10.8C8.65098 10.8 10.8 8.65098 10.8 6C10.8 3.34903 8.65098 1.2 6 1.2Z" fill="#B2B2B2"/>
<path d="M5.4 3.6C5.4 3.26863 5.66863 3 6 3C6.33138 3 6.6 3.26863 6.6 3.6C6.6 3.93137 6.33138 4.2 6 4.2C5.66863 4.2 5.4 3.93137 5.4 3.6Z" fill="#B2B2B2"/>
<path d="M5.4 5.4C5.4 5.06863 5.66863 4.8 6 4.8C6.33138 4.8 6.6 5.06863 6.6 5.4V8.4C6.6 8.73138 6.33138 9 6 9C5.66863 9 5.4 8.73138 5.4 8.4V5.4Z" fill="#B2B2B2"/>
</svg>
