<svg width="14" height="15" viewBox="0 0 14 15" fill="none" xmlns="http://www.w3.org/2000/svg">
<path d="M12.7766 0.500039H9.97742C9.60226 0.500039 9.29698 0.805323 9.29698 1.18048C9.29698 1.55564 9.60226 1.86092 9.97742 1.86092H11.6747L6.42794 7.1077C6.16138 7.37425 6.16138 7.80332 6.42794 8.06988C6.56008 8.20202 6.73474 8.27036 6.90791 8.27036C7.08107 8.27036 7.25573 8.20429 7.38787 8.06988L12.6347 2.8231V4.33967C12.6347 4.71482 12.9399 5.02011 13.3151 5.02011C13.6903 5.02011 13.9955 4.71482 13.9955 4.33967V1.72114C13.9955 1.0483 13.4472 0.5 12.7744 0.5L12.7766 0.500039Z" fill="#304C5C"/>
<path d="M13.3172 6.457C12.9421 6.457 12.6368 6.76229 12.6368 7.13744V11.0719C12.6368 12.2096 11.7111 13.1368 10.5719 13.1368H3.42573C2.28811 13.1368 1.36088 12.2111 1.36088 11.0719V3.92576C1.36088 2.78815 2.28662 1.86092 3.42573 1.86092H7.36025C7.7354 1.86092 8.04069 1.55564 8.04069 1.18048C8.04069 0.805323 7.7354 0.500039 7.36025 0.500039H3.42573C1.53782 0.500039 0 2.03558 0 3.92576V11.0743C0 12.9622 1.53554 14.5 3.42573 14.5H10.5743C12.4622 14.5 14 12.9645 14 11.0743V7.13977C14 6.76462 13.6947 6.45933 13.3196 6.45933L13.3172 6.457Z" fill="#304C5C"/>
</svg>
