<svg width="18" height="20" viewBox="0 0 18 20" fill="none" xmlns="http://www.w3.org/2000/svg">
<path d="M17.8676 16.6056L15.0195 5.98031C14.7001 4.78581 13.6549 3.98369 12.4179 3.98369H10.4551C10.9465 3.56961 11.2599 2.95154 11.2599 2.26054C11.2599 1.01482 10.2459 0 8.99932 0C7.75533 0 6.74411 1.01393 6.74411 2.26054C6.74411 2.95154 7.05662 3.56961 7.5471 3.98369H5.58609C4.34646 3.98369 3.29955 4.78581 2.97999 5.98031L0.131872 16.605C-0.0912257 17.4323 0.0745786 18.263 0.598913 18.9453C1.12065 19.6259 1.88021 20 2.73702 20H15.2609C16.1159 20 16.8764 19.6259 17.4042 18.9453C17.9268 18.2656 18.0908 17.4339 17.8677 16.6058L17.8676 16.6056ZM8.99929 1.177C9.59654 1.177 10.0827 1.66313 10.0827 2.26125C10.0827 2.85676 9.59654 3.34029 8.99929 3.34029C8.40378 3.34029 7.92025 2.85589 7.92025 2.26125C7.92025 1.66313 8.40465 1.177 8.99929 1.177ZM16.4736 18.2272C16.1663 18.6231 15.7583 18.8245 15.2617 18.8245H2.73702C2.2396 18.8245 1.83421 18.6248 1.53211 18.2298C1.23174 17.8383 1.1406 17.3826 1.26821 16.9103L4.11632 6.28503C4.29601 5.61314 4.8872 5.15998 5.586 5.15998H12.4178C13.1253 5.15998 13.7 5.60098 13.8832 6.28503L16.7322 16.9112C16.8598 17.3852 16.7696 17.8409 16.4736 18.2272ZM13.8346 9.26933C12.2764 8.76757 10.6496 8.5141 8.99929 8.5141C7.34905 8.5141 5.72227 8.76844 4.16399 9.26933C3.99298 9.32401 3.85582 9.4551 3.79331 9.62352C3.7308 9.79193 3.74817 9.98031 3.84105 10.134L5.99045 13.6861C6.09809 13.8649 6.29082 13.97 6.49394 13.97C6.53647 13.97 6.57988 13.9656 6.62241 13.9561C8.18323 13.6071 9.81521 13.6062 11.377 13.9561C11.6227 14.0108 11.8779 13.9031 12.009 13.6861L14.1584 10.134C14.2513 9.98031 14.2687 9.79279 14.2062 9.62352C14.1428 9.45511 14.0056 9.32402 13.8346 9.26933ZM11.2174 12.7208C10.7391 12.6314 10.2547 12.5741 9.76941 12.542L10.2651 10.7893C10.3536 10.4768 10.1713 10.1513 9.85884 10.0627C9.54633 9.97418 9.22079 10.1556 9.13225 10.4681L8.5515 12.5246C7.95859 12.5463 7.36656 12.6114 6.78147 12.7199L5.24234 10.1774C7.68244 9.52805 10.3137 9.52805 12.7549 10.1774L11.2174 12.7208Z" fill="#00393C"/>
</svg>
